name Walk7.mot
datacolumns 19
datarows 10
range 1.50300000 1.51200000
endheader

                time	   L_ground_force_vx	   L_ground_force_vy	   L_ground_force_vz	   L_ground_force_px	   L_ground_force_py	   L_ground_force_pz	   R_ground_force_vx	   R_ground_force_vy	   R_ground_force_vz	   R_ground_force_px	   R_ground_force_py	   R_ground_force_pz	   L_ground_torque_x	   L_ground_torque_y	   L_ground_torque_z	   R_ground_torque_x	   R_ground_torque_y	   R_ground_torque_z	
          1.50300000	          0.02270223	          0.05203604	         -0.00587759	         -0.00016373	          0.00000000	         -0.00001541	        -21.61049480	        431.54400343	        -33.76788067	          0.47075520	          0.00000000	          0.08435679	          0.00000000	          0.00016075	          0.00000000	          0.00000000	          2.74215016	          0.00000000	
          1.50400000	          0.02090978	          0.04730222	         -0.00547760	         -0.00015665	          0.00000000	         -0.00001479	        -21.40869475	        430.13417536	        -33.49892830	          0.47150034	          0.00000000	          0.08435367	          0.00000000	          0.00015134	          0.00000000	          0.00000000	          2.69259163	          0.00000000	
          1.50500000	          0.01919072	          0.04279215	         -0.00509092	         -0.00014958	          0.00000000	         -0.00001417	        -21.20308132	        428.78746275	        -33.23262650	          0.47222571	          0.00000000	          0.08434787	          0.00000000	          0.00014216	          0.00000000	          0.00000000	          2.64311839	          0.00000000	
          1.50600000	          0.01754530	          0.03850384	         -0.00471789	         -0.00014254	          0.00000000	         -0.00001355	        -20.99350215	        427.50309291	        -32.96922230	          0.47293125	          0.00000000	          0.08433943	          0.00000000	          0.00013322	          0.00000000	          0.00000000	          2.59368224	          0.00000000	
          1.50700000	          0.01597349	          0.03443465	         -0.00435874	         -0.00013557	          0.00000000	         -0.00001293	        -20.77981530	        426.28021814	        -32.70895956	          0.47361691	          0.00000000	          0.08432841	          0.00000000	          0.00012454	          0.00000000	          0.00000000	          2.54423589	          0.00000000	
          1.50800000	          0.01447496	          0.03058131	         -0.00401365	         -0.00012867	          0.00000000	         -0.00001232	        -20.56188968	        425.11792080	        -32.45207812	          0.47428270	          0.00000000	          0.08431490	          0.00000000	          0.00011612	          0.00000000	          0.00000000	          2.49473315	          0.00000000	
          1.50900000	          0.01304914	          0.02694004	         -0.00368275	         -0.00012188	          0.00000000	         -0.00001171	        -20.33960538	        424.01521700	        -32.19881271	          0.47492866	          0.00000000	          0.08429895	          0.00000000	          0.00010799	          0.00000000	          0.00000000	          2.44512897	          0.00000000	
          1.51000000	          0.01169524	          0.02350657	         -0.00336606	         -0.00011520	          0.00000000	         -0.00001111	        -20.11285403	        422.97105991	        -31.94939206	          0.47555486	          0.00000000	          0.08428066	          0.00000000	          0.00010013	          0.00000000	          0.00000000	          2.39537970	          0.00000000	
          1.51100000	          0.01041226	          0.02027620	         -0.00306357	         -0.00010865	          0.00000000	         -0.00001051	        -19.88153895	        421.98434384	        -31.70403817	          0.47616144	          0.00000000	          0.08426012	          0.00000000	          0.00009257	          0.00000000	          0.00000000	          2.34544324	          0.00000000	
          1.51200000	          0.00919902	          0.01724387	         -0.00277523	         -0.00010226	          0.00000000	         -0.00000993	        -19.64557527	        421.05390964	        -31.46296573	          0.47674853	          0.00000000	          0.08423742	          0.00000000	          0.00008530	          0.00000000	          0.00000000	          2.29527944	          0.00000000	
